<?xml version="1.0" encoding="utf-8"?>
<!-- Generator: Adobe Illustrator 24.0.1, SVG Export Plug-In . SVG Version: 6.00 Build 0)  -->
<svg version="1.1" id="TB" xmlns="http://www.w3.org/2000/svg" xmlns:xlink="http://www.w3.org/1999/xlink" x="0px" y="0px"
	 width="200px" height="200px" viewBox="0 0 200 200" style="enable-background:new 0 0 200 200;" xml:space="preserve">
<style type="text/css">
	.st0{fill:#FFFFFF;}
	.st1{fill:#B1BABF;}
	.st2{fill:#A30D2D;}
	.st3{fill:#DC4405;}
</style>
<g>
	<g>
		<path class="st0" d="M149.8,126.3c-1.8,2.7-15.5,22.4-16.5,23.7c-0.1-0.1-2.4-2.1-2.5-2.2c3.5-4.9,13.5-19.7,13.7-20
			c1.8-0.4,3.5-0.9,5.2-1.4C149.7,126.4,149.8,126.4,149.8,126.3z"/>
		<path class="st1" d="M156.4,124c-2.5,4-16.1,24.5-19.4,29.2c0,0-0.1,0-0.1-0.1c-0.5-0.4-1.1-0.9-1.8-1.5
			c1.1-1.6,13.7-20.3,17.4-26.1C153.9,125,155.2,124.5,156.4,124z"/>
		<path class="st0" d="M121,160.7c-0.5,1.1-0.9,3.1-0.7,4.5c0,0.3,0.1,0.6,0.2,0.9v0c-1.1,4.9-3.2,5-3.7,5c-0.1,0-0.1,0-0.1,0
			c2.1-1.8,2-5.1,4.1-9.7C120.8,161.1,120.9,160.9,121,160.7C121,160.7,121,160.7,121,160.7z"/>
		<path class="st1" d="M133.2,164.2c0.1,0.9-1,2.3-2,2.6c-0.7,0.3-1.6,0.4-2.5,0.4c-0.3,0-0.6,0-0.8,0c0.3-0.4,0.6-0.9,0.9-1.5
			c0.8-1.3,1.7-2.7,2.5-3.8c0.6,0.3,1.4,0.8,1.8,1.6C133.1,163.8,133.2,164,133.2,164.2z"/>
		<path class="st1" d="M127.5,157.6c-0.7-0.6-1.1-1.3-1.4-2c0,0-2.7,3.5-5,8.7c0.1,0.3,0.1,0.5,0.2,0.7c0.7,1.6,1.4,2,2.7,1.9
			c0,0,3-5.1,5.1-7.9C128.7,158.6,128.1,158.2,127.5,157.6z"/>
		<path class="st0" d="M126.1,155.6c-0.5-1.4-0.4-2.9-0.4-3.1c0,0.1-0.1,0.1-0.1,0.2c-0.8,1.3-1.6,2.5-2.4,3.8
			c-0.7,1.2-2.2,4-2.2,4.1c0,0.1-0.4,2.1,0,3.7c0,0,0,0,0,0c0,0,0-0.1,0,0C123.4,159,126.1,155.6,126.1,155.6z"/>
		<path class="st1" d="M139.3,161.5c-0.6-2.8-4.2-5.5-5-6.1c-1.8-1.6-6.3-5.1-6.7-5.9c-0.5-0.8-2.6-3.7-5.4-4.3c0,0-0.5-0.1-0.5,0.3
			c0,0.2,0.1,0.4,0.4,0.5c0.3,0.1,1.4,0.2,2.6,1.3c1.2,1.1,1.6,2.6,1.6,3.8c0,1.2,0.4,3,1.9,4.1c1.5,1.1,3.3,3,4.9,3.5
			c0.1,0,0.2,0,0.3,0c1,0.1,2-0.8,1.9-1.4c0.3,1.1,0,2-0.5,2.5c1.7,1.7,2.6,3.7,2,5.4c-0.7,2.3-3.2,5.3-7.8,5.2
			c-3.3,0-5.2-1-6.1-1.5c0,0,0.3-0.6,0.3-0.7c-1.9,0.5-2.6-2.4-2.7-2.5c-1.1,4.9-3.2,5-3.7,5c-0.1,0-0.1,0-0.1,0s0.4,1.6,2,2.4
			c-0.7-0.2-1.5,0-2,0.7c-0.5,0.8-0.3,1.9,0.5,2.5c0.8,0.5,1.9,0.3,2.5-0.5c0.5-0.8,0.3-1.9-0.5-2.5c0,0-0.1,0-0.1-0.1
			c0.2,0.1,0.4,0.2,0.7,0.2c2.1,0.4,2.9-0.7,2.9-0.7s-0.1-0.3-0.2-0.7c0,0-2.1,1.5-4.5-0.9c0.1,0,0.9,0.3,2.2,0.1
			c2-0.3,2.3-0.9,2.4-1c0,0,0,0,0-0.1c1.7,0.9,3.6,1.4,6.3,1.4c3,0.1,5.9-0.9,7.7-2.4C138.1,168,140.1,164.9,139.3,161.5z"/>
	</g>
	<path class="st1" d="M186.1,17c0,0,0.4,7.9-1.1,15.2c-1.4,7-2.2,9.7-2.2,9.7c-3.1,1.8-8,4-15.3,5.2c-13.5,2.3-25.8-1.4-39.2-6.6
		c-13.4-5.3-31.4-10.9-48-9c-16.2,1.9-27.7,8.4-33.9,12.7c-6.1,4.3-7.3,5.4-12.5,6.9c0,0,4.1,1.6,6.3,1.6c0,0-1,4.1-0.6,5.5
		c0,0,8.8-4,9.8-2.1c1,1.9-3.1,3.1-6,3.9c-2.9,0.8-10.4,0.6-10.4,0.6s3.5,2.7,4.8,4.6c0,0-6.7,2.9-14.1,1.9c0,0-0.2,2.7,5.8,7.2
		c-1.3,0.5-2.9,1.2-4,2.3c0,0,6.4-1.3,10.4,3.1c1.1,1.3,1.4,2.5,1.3,4c-0.2,2.7-1.3,3.7-3.8,5.4c-1.5,0.6-3,1.3-4.5,2.3
		c-7,4.3-12.2,10.9-15.8,18.5c-1.6,3.3-2.8,7.1-3.7,10.5c-0.9,3.5-1.2,6.5-1.4,8.4c-0.2,1.9-0.5,7.9-0.5,7.9s3.2-4.4,4.6-6.6
		c1.5-2.1,10.8-13.9,24.5-17.3c4.4-1.1,8.7-1.6,12.8-1.6c10,0,18.9,2.7,24.1,5.3c7.7,3.7,20.2,12.4,36.7,15.2c3.9,0.6,8.1,1,12.4,1
		c4.2,0,8.5-0.3,12.8-0.9c-2.4,3.6-4.8,7-7,10.2c-2.2-2.1-5.3-2.4-5.3-2.4c-3.7-0.3-5.5,1.9-5.5,1.9c-0.7,0.8-1.3,1.9-1.5,3.1
		c-0.3,1.1,0,2.5,0.3,3.2c0.7,2.2,2.6,3.3,3.4,3.6c-5.4,7.2-7,15.5-7,15.5l-2.5,2.2l0.9,3.6c-1.4,4.4,0.8,7.7,3.6,9.1
		c2.8,1.4,5.5,0.6,5.5,0.6c1.7-0.5,3.2-1.5,4.2-3.1c0.2-0.2,0.3-0.5,0.4-0.7c0.6-0.3,1.1-0.7,1.5-1c0.8,0.1,2.8,0.1,2.8,0.1
		c4.1,0,8.1-1.2,11.1-3.8c2.4-2.1,5-5.8,5.1-10.8c0-0.9,0.2-4.7-3-8c19.7-29,32.6-47.6,40.7-66.6C204.7,38.1,186.2,17.1,186.1,17z
		 M151,138.2c-4.2,6.4-8.2,12.3-11.5,17c3.8,3.1,3.6,7.1,3.6,7.8c-0.1,4.2-2.3,7.3-4.3,9.1c-2.5,2.2-6,3.2-9.7,3.2
		c-0.1,0-2.7-0.1-3.6-0.3c-0.4,0.6-1.1,1.3-2.3,1.8c-0.1,0.4-0.3,0.8-0.6,1.1c-1,1.5-2.7,2.3-4.4,2.3c0,0-1.7,0-2.9-0.9
		c-1.5-1-2.4-2.7-2.4-4.4v0c0-0.8,0.2-1.6,0.6-2.4c-0.2-0.4-0.8-2.9-0.8-2.9l1.6-1.4c0.1-0.1,0.5-0.7,1-2.2c0.5-1.5,1-3.7,2.2-6.3
		c1.5-3.3,3.6-6.7,5.1-9.1c-0.1-0.8-0.9-1.1-1.5-1.2c-0.6-0.2-1.4-0.5-2.1-1.3c-0.7-0.8-1.2-1.8-0.9-3.2c0.3-1.4,1.1-2.4,2.2-2.8v0
		c1.1-0.6,2.6-0.3,2.6-0.3c3.4,0.3,5.8,3.4,5.8,3.4c3.3-4.7,11.1-16.2,11.3-16.5c-10.2,2-20.7,2.2-29.5,0.8
		c-15.9-2.6-28.2-11.1-36.1-15c-7.9-3.9-23-7.8-38.5-3.9c-15.5,4-25.8,18.3-25.8,18.3C14.7,96.3,35,90.8,36.9,90.2
		c3-2.8,6.8-11.2-2.3-16.9c-3.1-1.9-5.8-4.4-5.8-4.4c1.9,0.2,6.4-0.4,8.9-1.4c3-1.2,5.8-1.6,5.8-1.6c-2.4-2.3-6-3.4-6-3.4
		c3.6-0.2,9.3-1.5,12.8-3.1c3.5-1.6,5.4-4.4,4.9-5.6c-0.6-1.2-3.7-0.6-3.7-0.6c1.1-1.7,3.8-2.4,3.8-2.4c-7.8-0.5-13.5,3.8-13.5,3.8
		c0.9-1.9,3.7-5.2,3.7-5.2c-1.1,0.4-4.1,1.3-4.3,1.3C53.4,41.5,67,33.2,86.1,33.1c19.1-0.1,37.7,8.4,50,12.4c12.4,4,19,6,32.3,4
		c6.4-1,12-3.6,16.1-6c0,0,2.9-7.3,3.1-17.8c0,0,3.4,6.2,3.5,15.8c0,33-16,57.1-21.1,65.9C165.2,116,158.8,126.3,151,138.2z"/>
	<path d="M121.1,164.2C121.1,164.2,121.1,164.2,121.1,164.2C121.1,164.2,121.1,164.2,121.1,164.2
		C121.1,164.2,121.1,164.2,121.1,164.2C121.1,164.2,121.1,164.2,121.1,164.2z M187.7,25.6c-0.2,10.5-3.1,17.8-3.1,17.8
		c-4.1,2.5-9.7,5.1-16.1,6c-13.4,2-20,0-32.3-4c-12.4-4-31-12.5-50-12.4C67,33.2,53.4,41.5,41.2,50.9c0.2-0.1,3.2-1,4.3-1.3
		c0,0-2.8,3.3-3.7,5.2c0,0,5.7-4.2,13.5-3.8c0,0-2.7,0.7-3.8,2.4c0,0,3.2-0.7,3.7,0.6c0.6,1.2-1.4,4.1-4.9,5.6
		c-3.5,1.6-9.1,2.8-12.8,3.1c0,0,3.6,1.1,6,3.4c0,0-2.8,0.4-5.8,1.6c-2.5,1-7,1.6-8.9,1.4c0,0,2.6,2.5,5.8,4.4
		c9.2,5.7,5.3,14.1,2.3,16.9C35,90.8,14.7,96.3,10.1,129c0,0,10.3-14.3,25.8-18.3c15.5-4,30.6,0,38.5,3.9c7.9,3.9,20.2,12.3,36.1,15
		c8.8,1.5,19.3,1.2,29.5-0.8c-0.2,0.3-8,11.8-11.3,16.5c0,0-2.5-3.1-5.8-3.4c0,0-1.4-0.3-2.6,0.3v0c-1,0.5-1.9,1.5-2.2,2.8
		c-0.3,1.4,0.2,2.5,0.9,3.2c0.6,0.7,1.4,1.1,2.1,1.3c0.6,0.1,1.4,0.5,1.5,1.2c-1.5,2.4-3.6,5.8-5.1,9.1c-1.2,2.6-1.8,4.8-2.2,6.3
		c-0.4,1.5-0.8,2.1-1,2.2l-1.6,1.4c0,0,0.6,2.5,0.8,2.9c-0.4,0.7-0.6,1.6-0.6,2.4v0c0,1.7,0.8,3.4,2.4,4.4c1.2,0.8,2.9,0.9,2.9,0.9
		c1.7,0,3.4-0.8,4.4-2.3c0.2-0.4,0.4-0.7,0.6-1.1c1.2-0.5,2-1.2,2.3-1.8c0.9,0.2,3.5,0.3,3.6,0.3c3.7,0,7.1-1.1,9.7-3.2
		c2-1.8,4.3-5,4.3-9.1c0-0.7,0.2-4.7-3.6-7.8c3.3-4.7,7.3-10.6,11.5-17c7.9-11.9,14.3-22.2,19.2-30.9c5.1-8.8,21.1-32.9,21.1-65.9
		C191.2,31.8,187.7,25.6,187.7,25.6z M144.5,127.8c1.8-0.4,3.5-0.9,5.2-1.4c0,0,0.1,0,0.1,0c-1.8,2.7-15.5,22.4-16.5,23.7
		c-0.1-0.1-2.4-2.1-2.5-2.2C134.3,143,144.3,128.1,144.5,127.8z M123.3,156.4c0.8-1.3,1.6-2.6,2.4-3.8c0-0.1,0.1-0.1,0.1-0.2
		c0,0.3-0.1,1.7,0.4,3.1c0.3,0.7,0.7,1.4,1.4,2c0.6,0.6,1.2,1,1.6,1.4c-2.1,2.7-5.1,7.9-5.1,7.9c-1.3,0.1-1.9-0.3-2.7-1.9
		c-0.1-0.2-0.2-0.5-0.2-0.7v0c-0.4-1.6,0-3.7,0-3.7C121.1,160.4,122.5,157.7,123.3,156.4z M131.3,161.9c0.6,0.3,1.4,0.8,1.8,1.6
		c0.1,0.2,0.1,0.4,0.1,0.6c0.1,0.9-1,2.3-2,2.6c-0.7,0.3-1.6,0.4-2.5,0.4c-0.3,0-0.6,0-0.8,0c0.3-0.4,0.6-0.9,0.9-1.5
		C129.5,164.5,130.4,163,131.3,161.9z M136.4,169.5c-1.7,1.5-4.6,2.4-7.7,2.4c-2.7-0.1-4.6-0.5-6.3-1.4c0,0,0,0,0,0.1
		c-0.1,0.1-0.4,0.7-2.4,1c-1.3,0.2-2.1,0-2.2-0.1c2.3,2.4,4.5,0.9,4.5,0.9c0.1,0.4,0.2,0.7,0.2,0.7s-0.7,1-2.9,0.7
		c-0.3,0-0.5-0.1-0.7-0.2c0,0,0.1,0,0.1,0.1c0.8,0.5,1,1.6,0.5,2.5c-0.5,0.8-1.7,1-2.5,0.5c-0.8-0.5-1-1.7-0.5-2.5
		c0.4-0.7,1.3-0.9,2-0.7c-1.6-0.8-2-2.4-2-2.4c2.1-1.8,2-5.1,4.1-9.7c0.1-0.2,0.2-0.4,0.3-0.6c0,0,0,0,0,0c-0.5,1.1-0.9,3.1-0.7,4.5
		c0,0.3,0.1,0.6,0.2,0.9v0c0,0.1,0.7,3,2.7,2.5c0,0-0.3,0.7-0.3,0.7c0.8,0.5,2.8,1.4,6.1,1.5c4.6,0.1,7.1-3,7.8-5.2
		c0.5-1.8-0.3-3.7-2-5.4c0.5-0.6,0.8-1.4,0.5-2.5c0.2,0.5-0.8,1.5-1.9,1.4c-0.1,0-0.2,0-0.3,0c-1.6-0.4-3.4-2.3-4.9-3.5
		c-1.5-1.1-1.9-2.9-1.9-4.1c0-1.2-0.4-2.7-1.6-3.8c-1.2-1.1-2.2-1.2-2.6-1.3c-0.3-0.1-0.4-0.3-0.4-0.5c0.1-0.4,0.5-0.3,0.5-0.3
		c2.9,0.6,5,3.4,5.4,4.3c0.4,0.8,5,4.3,6.7,5.9c0.8,0.6,4.4,3.3,5,6.1C140.1,164.9,138.1,168,136.4,169.5z M137,153.1
		C137,153.1,137,153.1,137,153.1c-0.5-0.5-1.2-1-1.8-1.6c1.1-1.6,13.7-20.3,17.4-26.1c1.3-0.5,2.5-1,3.8-1.5
		C153.9,127.9,140.3,148.5,137,153.1z M160.5,118.8c-8.7,4-28.7,10.8-48.7,7c-6.9-1.3-16.1-3.5-28.2-10.8
		c-7.9-4.8-16.5-9.4-36.5-9.3c-16.5,0.1-27.2,7.6-30.5,10.4c9-29.3,35.5-25,35.5-25c-4.8-2.3-10.7-1.4-10.7-1.4
		c8.3-13.1-5.1-19.2-5.1-19.2c1.1,0,6.2-1.5,8.8-2.4c2.6-0.9,7.4-1.5,7.4-1.5c-1.7-1.5-6.8-2.8-6.8-2.8c4.9,0,9.3-2.4,12.3-5.5
		c1.1-1.1,4-6.7,0.7-8.8c-3-2-9.1,0.2-9.1,0.2c0,0,18.1-19.5,55.4-11.2c17.7,3.9,37.6,14.3,56,14.4c6.2,0,19.8-2,28-10.2
		C188.6,58.4,185.7,80.2,160.5,118.8z M121.1,164.2C121.1,164.2,121.1,164.2,121.1,164.2C121.1,164.2,121.1,164.2,121.1,164.2
		C121.1,164.2,121.1,164.2,121.1,164.2C121.1,164.2,121.1,164.2,121.1,164.2z"/>
	<path class="st2" d="M161.1,53c-18.4-0.1-38.3-10.5-56-14.4c-37.3-8.3-55.3,11.1-55.4,11.2c0,0,6-2.2,9.1-0.2
		c3.3,2.2,0.4,7.7-0.7,8.8c-3.1,3.2-7.5,5.5-12.3,5.5c0,0,5.1,1.2,6.8,2.8c0,0-4.8,0.6-7.4,1.5c-2.6,0.9-7.7,2.4-8.8,2.4
		c0,0,13.4,6.1,5.1,19.2c0,0,5.8-0.9,10.7,1.4c0,0-26.5-4.3-35.5,25c3.4-2.8,14-10.3,30.5-10.4c20-0.1,28.5,4.5,36.5,9.3
		c12.1,7.3,21.2,9.5,28.2,10.8c20,3.7,40-3,48.7-7c25.2-38.6,28.1-60.4,28.5-76C180.9,51,167.3,53,161.1,53z M147.4,97.6
		c-8.9,6.3-22.9,8.2-22.9,8.2c-0.2,0.6-1.1,1.2-1.1,1.2s1.4,0.5,4.9,3.2c3.5,2.6,2.6,2.5,3.7,3.3c1.1,0.8,1.8,0.5,1.8,0.5
		c0.3,0.7,0.4,1.7,0.4,1.7c0.5,0.4,2.8,2.6,0.6,4.9c-2.1,2.3-4.6,0.2-4.6,0.2c-0.9,0.2-1.7-0.1-1.7-0.1s-4.6,2.9-9.1-0.3
		c-3.7-2.5-3.5-5.5-3.2-6.6c-1.2,0.7-2.6,1.3-3.9,1.7c-3.7,1.2-8.4,1.6-13.1,0.1c-3.1-1-5.6-2.8-7.6-4.8c-2-2-3.5-4.2-4.5-6.2
		c-0.1-0.3-0.3-0.6-0.4-0.9c-0.3,0.8-1.9,3.7-6.6,3.5c-5.5-0.2-7.4-5.3-7.4-5.3s-0.8-0.3-1.4-1c0,0-3.2,0.2-3.6-2.9
		c-0.3-3.1,2.8-3.4,3.5-3.5c0,0,0.6-0.8,1.3-1.1c0,0,0.4,0.6,1.7,0.6c1.3,0.1,0.5-0.4,4.9-0.4c4.4,0,5.8,0.5,5.8,0.5
		s-0.4-1.1-0.1-1.6c0,0-10-10-13.3-20.4c-3.3-10.4-2.3-14.3,1.7-25.3c0,0,3,18.7,12.1,30.5c5.2,6.7,11.1,11.9,15.2,15.2
		c0.1,0,0.2,0,0.3,0c-0.9-1-1.5-2.1-1.9-3.4c-0.8-3.2-2.2-6.2-2.8-8.6c-0.6-2.4,0.8-7.2,0.8-7.2c-1.8-2.9-0.9-7.8-0.9-7.8
		s1-0.5,1.7-1.4c0.8-0.9,0.5-3.6,1.1-7.6s3.2-8.1,9-10.5c5.7-2.3,14.3,0.7,14.4,0.8c0.1,0,8.8,2.8,11.9,8.1
		c3.2,5.3,2.8,10.2,0.8,13.8c-1.9,3.6-3.8,5.6-3.7,6.8c0,1.2,0.6,2.2,0.6,2.2s-2.2,4.4-5.4,5.6c0,0-1.8,4.6-3.7,6.2
		c-1.9,1.5-4.8,3.1-7.4,5.2c-1,0.8-2.2,1.3-3.5,1.6c0.1,0.1,0.2,0.1,0.2,0.2c5.2-0.1,13-0.8,21.2-3c14.4-3.9,28.1-17,28.1-17
		C157.8,87.6,156.3,91.3,147.4,97.6z"/>
	<g>
		<path d="M114.6,77.3l0.2-0.6c0.2-0.6-0.3-0.9-0.3-2c0-0.5-0.1-1.1,0.1-1.7c0.2-0.5-0.1-1.1-0.6-1.3c0,0-0.1,0-0.1,0
			c0,0-0.1,0-0.1,0c-0.6-0.1-1.1,0.1-1.3,0.6c-0.2,0.6-0.6,1-0.9,1.4c-0.7,0.8-1.2,0.8-1.4,1.4l-0.2,0.6c-0.1,0.4,0,0.7,0.3,1
			c0.1,0.1,0.3,0.2,0.5,0.3c0.6,0.2,1.2-0.1,1.4-0.6c0-0.1,0.1-0.1,0.2-0.1c0.1,0,0.1,0.1,0.1,0.2c-0.2,0.5,0.1,1.1,0.7,1.3
			c0.2,0.1,0.4,0.1,0.6,0C114.1,77.9,114.4,77.7,114.6,77.3z"/>
		<path d="M117.2,71c0,0.7,0.2,3.5,1.4,4.2h0c0,0,0,0,0,0c1.2,0.8,3.7,1.2,4.9,1.1c0.2,0,0.5-0.1,0.5-0.1c0,0,0,0,0,0
			c0.5-0.3,1-0.5,1.4-1c0.6-0.6,1-1.3,1.3-2.1c0.1-0.3,0.3-0.7,0.4-1c0,0,0.3-1.2,0.7-1.3c0.1,0,0.1,0,0.2,0l0,0l0,0
			c0,0-1.5-0.4-3.3-0.2c-0.2,0-0.3,0-0.5,0.1c-1.9,0.4-3.7,0.6-5,0.2c-0.4-0.1-0.8-0.4-1.1-0.6c0,0,0,0,0,0
			c-0.1-0.1-0.2-0.1-0.2-0.2v0c-0.4-0.4-0.7-0.8-0.7-0.9c0,0,0,0,0,0C117.3,69.1,117.2,70.2,117.2,71z"/>
		<path d="M103.2,62.4c0.3,0.4-0.2,1.5-0.2,1.5c-0.1,0.3-0.2,0.6-0.3,1c-0.3,1.1-0.4,2.5,0.1,3.6c0,0,0.3,0.5,0.3,0.6
			c0,0-0.1,0-0.1,0.1c0,0,0.1,0,0.1-0.1c0,0,0.2,0.2,0.3,0.4c0.9,0.8,3.1,2,4.5,2.1c0,0,0,0,0,0c1.4,0.2,3.2-1.9,3.7-2.5
			c0.4-0.6,1.1-1.6,1.1-1.6s-0.5,0.2-1.1,0.2v0c-0.1,0-0.2,0-0.3,0c0,0,0,0,0,0c-0.4,0-0.8,0-1.2-0.1c-1.2-0.4-2.5-1.7-3.8-3.2
			c-0.1-0.1-0.2-0.2-0.4-0.4c-1.2-1.2-2.6-1.8-2.7-1.8c0,0,0,0,0,0l0,0C103.2,62.3,103.2,62.4,103.2,62.4z"/>
		<path class="st1" d="M106.6,93.4C106.6,93.4,106.6,93.4,106.6,93.4C106.6,93.4,106.6,93.4,106.6,93.4c0.8,0.3,1.5,0.4,2.2,0.5
			c0.7,0.1,1.5,0.1,2.4-0.1c1.8-0.3,3.9-2.2,4.7-2.8c0.8-0.6,3.8-2.5,4.5-3c0.7-0.5,1.2-0.9,1.9-2.1c0.7-1.2,1.9-3.9,1.9-3.9
			s-1.1-0.2-1.5-0.3c0,0,0,0,0,0c-0.2,0.3-1.5,2.7-2,3.2c0,0,0,0,0,0c0.3,0.2,1.1,0.7,1.3,1.3c0,0-1.4,1.3-3.2,2.1
			c-1.8,0.8-4.5,2.5-5.5,3.2c-0.4,0.3-0.9,0.5-1.6,0.6c-0.4-0.8-1.9-1.7-3.8-2.3c-2-0.7-3.8-0.8-4.6-0.4c-0.5-0.6-0.9-1.1-1-1.6
			c-0.4-1.2-1.5-4.2-2.5-5.9c-0.9-1.7-1.3-3.6-1.3-3.6c0.6-0.5,2-0.3,2-0.3c0-0.1,0-0.2,0-0.4c0-1,0.3-3.1,0.3-3.4c0,0,0,0,0,0
			c-0.3-0.2-1.4-0.7-1.4-0.7s0,0,0,0c-0.1,0.3-0.7,2.9-0.9,4.2c-0.2,1.4,0.1,2,0.3,2.8c0.3,0.8,1.4,4.2,1.7,5.1
			c0,0.1,0.1,0.3,0.1,0.4c0.3,1.2,0.9,3.4,2,4.6C103.9,92.3,105.1,92.9,106.6,93.4z"/>
		<path class="st1" d="M110.7,63.3c1.3,1.5,3.5,3.5,4.7,3.9c1.3,0.4,4.1,0.2,6.1-0.3c2-0.3,5,0,5,0c-1.2-1.5-5.5-1.1-7.8-1
			c-2.1,0.2-2.7-0.1-2.8-0.2c-0.1,0-0.8-0.2-2.4-1.5c-1.8-1.5-4.9-4.4-6.8-3.9C106.7,60.3,109.2,61.8,110.7,63.3z"/>
		<path class="st1" d="M102.8,70.6c0-0.1-0.7-1,0.1-1.4c0,0,0.1,0,0.1-0.1c0,0,0.1,0,0.1-0.1c0,0-0.3-0.5-0.3-0.6
			c-0.5-1.1-0.4-2.5-0.1-3.6c0.1-0.3,0.2-0.6,0.3-1c0,0,0.5-1.1,0.2-1.5c0,0-0.1-0.1-0.1-0.1l0,0l0,0c0,0-1.6,2.9-1.7,4.4
			C101.3,68.1,101.2,69.5,102.8,70.6z"/>
		<path class="st1" d="M108,71.5c0,0,0,0.5-1,1.1c0,0,1.6,0.5,2.8-0.1c1.2-0.7,2.8-3.7,4.8-3c2,0.7,1.5,4.1,2,5.3
			c0.5,1.2,2,1.8,2.1,1.8c-0.4-1.1-0.1-1.5-0.1-1.5h0c-1.2-0.7-1.4-3.5-1.4-4.2c0-0.7,0.1-1.9,0.1-1.9c-0.9,0.5-4.2-0.6-4.6-1.5
			c0,0-0.7,1-1.1,1.6C111.2,69.6,109.3,71.7,108,71.5z"/>
		<path class="st1" d="M127.9,70.7c-0.5,0.2-0.7,1.3-0.7,1.3c-0.1,0.3-0.2,0.7-0.4,1c-0.3,0.8-0.8,1.5-1.3,2.1
			c-0.4,0.4-0.9,0.7-1.4,1c0,0.1,0,0.1,0.1,0.2c0.4,0.9-0.8,1.2-0.8,1.2c2,0.1,2.7-1.1,3.5-2.3c0.8-1.3,1.3-4.5,1.3-4.5l0,0
			C128,70.7,128,70.7,127.9,70.7z"/>
		<path class="st1" d="M100.9,73.3c0.8,0.3,1.5,0.7,2.3,1.1c1.1,0.6,2.3,1.4,2.7,2.6c0,0,0,0,0,0c0.1,0.3,0.1,0.7,0.1,1
			c0,0,0-0.1,0-0.2c-0.1-0.2-0.3-0.3-0.4-0.5c0,0,0,0,0,0c-0.2-0.3-0.5-0.5-0.8-0.7c0,0,0,0,0,0l0,0c0,0-0.2,0.8-0.6,1.4
			c-0.2,0.4-0.4,0.7-0.7,1.3c0,0,0,0,0,0c-0.5,1.2,0.1,2.5,0.2,2.5c0.1,0,0.5-0.1,1.1-1.8c0,0,0-0.1,0.1-0.2c0-0.1,0-0.2,0-0.3
			c0,0,0,0,0,0c0.1-0.3,0.4-0.3,0.6-0.2c0.1,0,0.2,0,0.2,0c0.1-0.3,0.3-0.8,0.4-1.2c0.3-0.9,0.2-2.3-0.9-3.5c-1.1-1.2-3.9-2.2-5-2.7
			c-1.1-0.5-2-3.1-1.9-4.8c0,0-0.1,1-0.1,2c0,0.4,0,0.8,0.1,1.1c0,0.2,0.1,0.3,0.1,0.5C98.6,71.6,98.6,72.3,100.9,73.3z"/>
		<path class="st1" d="M116.5,83.2c0.1,0,0.2,0.1,0.3,0.2c0.1,0.2,0.1,0.2,0.1,0.2c-0.1,0-0.2,0-0.3,0.1c-0.1,0-0.3,0.1-0.3,0.2
			c-0.5,1.7-0.4,2-0.2,2.1c0.1,0.1,1.3-0.6,1.7-1.9c0,0,0.2-1,0.2-1.5c0.1-0.7,0.3-1.4,0.4-1.5l0,0c0,0,0,0,0,0
			c-1.2-0.1-1.9,0.4-1.9,0.4s-0.3,0.6-0.4,1.4C115.9,83,116.4,83.2,116.5,83.2z"/>
		<path class="st1" d="M124.8,80.1c-1.2-0.2-4-1.2-5.6-0.8c-1.3,0.3-2.1,1-2.6,1.8c0,0,0,0,0,0c0,0,0,0,0,0c0.9-1,2.5-1,3.8-0.8
			c1,0.1,1.9,0.3,2.9,0.5c2.4,0.6,2.8,0.1,3.7-0.6c0.7-0.6,1.4-1.4,1.8-2.2c0,0,0,0,0,0C127.7,79.2,125.8,80.3,124.8,80.1z"/>
		<path class="st1" d="M115,75.2L115,75.2L115,75.2c0-0.6-0.1-1,0.1-1.4c0.3-0.8-0.2-1.7-1.1-2c0.5,0.2,0.8,0.8,0.6,1.3
			c-0.2,0.6-0.2,1.1-0.1,1.7c0,1,0.5,1.3,0.3,2l-0.2,0.6c-0.1,0.4-0.5,0.6-0.8,0.7c0,0,0,0,0,0c-0.2,0.6-0.8,0.8-0.8,0.8s0,0,0,0
			c0.9,0.3,1.9-0.1,2.2-0.9l0.2-0.6c0.2-0.4,0-0.9-0.1-1.1C115.1,75.8,115,75.6,115,75.2z"/>
		<path class="st1" d="M109.9,75.8l0.2-0.6c0.2-0.6,0.8-0.6,1.4-1.4c0.4-0.4,0.7-0.8,0.9-1.4c0.2-0.5,0.7-0.8,1.3-0.6
			c-0.9-0.3-1.8,0.2-2.1,0.9c-0.2,0.5-0.4,0.8-0.8,1.2v0l0,0c-0.3,0.3-0.5,0.4-0.7,0.6c-0.3,0.2-0.6,0.4-0.8,0.9l-0.2,0.6
			c-0.3,0.8,0.3,1.7,1.2,2c0,0-0.4-0.5-0.2-1.1c0,0,0,0,0,0C109.9,76.5,109.8,76.1,109.9,75.8z"/>
		<path class="st0" d="M98.4,78.4c0,0,0.3,1.9,1.3,3.6c0.9,1.7,2.1,4.7,2.5,5.9c0.2,0.5,0.5,1,1,1.6c0.7-0.4,2.6-0.3,4.6,0.4
			c1.9,0.6,3.4,1.6,3.8,2.3c0.7-0.1,1.2-0.4,1.6-0.6c1.1-0.7,3.7-2.4,5.5-3.2c1.8-0.8,3.2-2.1,3.2-2.1c-0.1-0.6-1-1.2-1.3-1.3
			c-0.2,0-0.9,0.2-1.2,0.4c-0.4,0.3-1.9,2.5-3.8,3.3c0.2-1.1-0.5-1.6-0.7-1.6c-0.2,0-0.3,0.4-0.4,0.5c0,0.1-0.4,0.8-0.5,1.2
			c-0.1,0.3-0.1,0.4-0.1,0.4c-0.3,0-0.6,0-0.9,0c0.3-0.6,0.6-1.1,0.8-1.6c0.2-0.5-0.3-0.6-0.3-0.6l0,0c-0.3,0-0.5-0.1-0.8-0.1
			c0,0,0,0,0,0c-0.3-0.1-0.5,0.2-0.6,0.3c0,0.1-0.1,0.2-0.1,0.3c-0.1,0.3-0.3,0.6-0.4,0.9c0,0,0,0,0,0.1c-0.2,0.4,0,0.7,0,0.7
			c-0.1,0-0.4,0-0.8-0.1c-0.2,0-0.5-0.2-0.5-0.2c0.1-0.1,0.2-0.4,0.2-0.4l0,0c0.3-0.7,0.7-1.7,0.7-1.7s0.2-0.4-0.1-0.5
			c-0.4-0.1-0.8-0.2-1.2-0.3c-0.3-0.1-0.4,0.2-0.5,0.3c-0.1,0.2-0.2,0.4-0.2,0.5c-0.1,0.4-0.3,0.8-0.4,1.3c0,0,0,0,0,0
			c-0.1,0.3,0,0.5,0,0.5s-0.4-0.1-0.6-0.1c-0.2-0.1-0.5-0.3-0.5-0.3c0,0,0.1-0.2,0.1-0.3c0.2-0.6,0.3-1.4,0.5-2.1
			c0-0.1,0-0.4-0.3-0.5c-0.3-0.1-0.7-0.2-1-0.4c-0.3-0.1-0.4,0.1-0.5,0.3c-0.1,0.6-0.3,1.3-0.4,1.8c0,0.4,0.1,0.6,0.1,0.6
			c-0.2,0-0.5-0.2-0.7-0.3c-0.2-0.1-0.5-0.3-0.5-0.3c0.2,0,0.3-0.4,0.3-0.4c0.2-0.4,0.3-0.8,0.5-1.2c0,0,0,0,0-0.1c0,0,0,0,0,0
			c0.2-0.4-0.1-0.7-0.2-0.7c-0.4-0.2-0.9-0.5-0.9-0.5c-0.2-0.1-0.4,0-0.5,0.2c-0.2,0.5-0.4,0.9-0.5,1.4c0,0.3,0,0.5,0,0.5
			c-0.6-0.3-0.8-0.7-0.8-0.7c0.1-0.2,0.3-0.8,0.3-1.3c0-0.6,0-1.1-0.2-1.2c-0.3-0.2-0.7,0.3-0.9,0.6c-0.2,0.3-0.3,0.5-0.3,0.5
			c0,0,0,0,0,0c-1-1.8-0.9-4.4-1-4.9c-0.1-0.5-0.7-1.1-0.7-1.1S99,77.9,98.4,78.4z"/>
		<path class="st0" d="M113.9,71.7c0,0,0.1,0,0.1,0C113.9,71.7,113.9,71.7,113.9,71.7z"/>
		<path class="st1" d="M142.1,95L142.1,95c-0.1,0.1-9.9,5.9-24.8,7c0.5,0.7,0.9,1.4,1.3,2.1c4.6-0.3,9.3-0.9,13.8-2.1
			c2.8-0.8,5.6-1.8,8.3-3c2.7-1.3,5.3-2.8,7.6-4.7c1.5-1.2,2.9-2.5,4.2-4c1.8-2,3.4-4.3,4.3-6.9c0,0,0.1-0.2,0.1-0.2
			C156.7,83.3,153.9,89.8,142.1,95z"/>
		<path class="st0" d="M114.7,98.8c0.6,0.6,1.1,1.2,1.6,1.9c0,0,1.6-0.1,1.8-0.1c2.7-0.2,5.5-0.6,8.2-1.1c6.7-1.2,11.8-2.9,14.2-3.8
			c0.6-0.2,1.1-0.4,1.6-0.7c11.8-5.1,14.7-11.7,14.7-11.8c0,0-0.5,0.4-1.3,1c-0.3,0.3-0.7,0.6-1.1,0.9c-4.4,3.5-13.7,9.8-28.8,12.5
			C122,98.2,118.3,98.6,114.7,98.8z"/>
		<path class="st2" d="M116.9,110.1c-3.1,1.9-9.9,3.7-16.4,1.5c-6.4-2.2-10.7-7.7-12.1-11c-0.2-0.3-0.2-1.3,0.7-1.7
			c0,0-0.6,0.1-1.1,0.5c0,0,0,0.1-0.1,0.2c-0.7,2.2,3.6,11.3,11.9,14.1c8.2,2.8,17.2-1.7,18-4.1c0.1-0.2,0.1-0.3,0.1-0.3
			c-0.2-0.6-0.5-1-0.5-1C117.7,109.2,117.3,109.8,116.9,110.1z"/>
		<path class="st3" d="M105.9,95.5C98.3,93,90,96.7,88.2,99c-0.1,0.1-0.1,0.2-0.2,0.3c0,0,0,0,0,0c0.5-0.4,1.1-0.5,1.1-0.5
			c-0.9,0.4-0.9,1.4-0.7,1.7c1.4,3.4,5.7,8.9,12.1,11c6.6,2.2,13.4,0.4,16.4-1.5c0.4-0.3,0.8-0.9,0.4-1.8c0,0,0.4,0.4,0.5,1
			c0.1-0.6,0-1.4-0.4-2.3C116.2,103.3,112.2,97.6,105.9,95.5z M110.7,104.2c0,0.1,0,0.2,0,0.3c-0.3-0.1-0.5-0.3-0.8-0.4
			c-0.1,0.6-0.3,1.2-0.5,1.8c-0.4-0.2-0.8-0.5-1.3-0.7c0.2-0.6,0.3-1.2,0.4-1.8c-0.5-0.2-0.9-0.4-1.4-0.6c-0.1,0.6-0.3,1.1-0.4,1.7
			c-0.4-0.2-0.9-0.4-1.3-0.6c0.2-0.5,0.3-1.1,0.5-1.6c-0.5-0.2-0.9-0.4-1.4-0.5c-0.2,0.5-0.3,1.1-0.5,1.6c-0.5-0.2-0.9-0.3-1.4-0.5
			c0.2-0.5,0.4-1.1,0.5-1.6c-0.5-0.2-1-0.3-1.4-0.4c-0.2,0.5-0.4,1-0.6,1.6c-0.5-0.1-0.9-0.2-1.4-0.3c0.2-0.5,0.4-1.1,0.6-1.6
			c-0.5-0.1-1-0.2-1.5-0.4c-0.3,0.5-0.5,1.1-0.7,1.7c-0.5-0.1-0.9-0.2-1.4-0.2c0.2-0.6,0.4-1.2,0.7-1.7c-0.3-0.1-0.6-0.1-0.9-0.2
			c0.1-0.1,0.1-0.2,0.2-0.3c-2.8-0.5-5.3-0.7-7.4-0.7c1.7-0.4,4.6-0.6,8-0.1c0,0,0.1-0.1,0.1-0.1c0.3,0,0.5,0.1,0.8,0.1
			c0.2-0.3,0.5-0.7,0.8-1c0.4,0.1,0.9,0.1,1.3,0.2c-0.2,0.3-0.5,0.7-0.7,1c0.5,0.1,0.9,0.2,1.4,0.3c0.2-0.4,0.4-0.7,0.6-1.1
			c0.4,0.1,0.8,0.2,1.2,0.3c-0.2,0.4-0.4,0.7-0.5,1.1c0.4,0.1,0.9,0.2,1.4,0.4c0.1-0.4,0.3-0.8,0.4-1.1c0.4,0.1,0.8,0.2,1.1,0.4
			c-0.1,0.4-0.2,0.8-0.3,1.2c0.4,0.2,0.9,0.3,1.3,0.5c0.1-0.4,0.2-0.8,0.2-1.2c0.4,0.2,0.7,0.3,1.1,0.5c0,0.4-0.1,0.8-0.1,1.2
			c0.4,0.2,0.9,0.4,1.3,0.6c0-0.4,0.1-0.8,0.1-1.2c0.4,0.2,0.8,0.4,1.2,0.6c0,0.4,0,0.8,0,1.2c0.2,0.1,0.5,0.3,0.7,0.4
			c0,0.1,0,0.1,0,0.2c2.9,1.7,5,3.5,6.1,4.8C115.2,106.7,113.1,105.4,110.7,104.2z"/>
		<path d="M89.4,98.8c2.1,0,4.6,0.2,7.4,0.7c0.2-0.3,0.4-0.6,0.6-0.9C94,98.2,91.1,98.4,89.4,98.8z"/>
		<path d="M110.7,103.1c0,0.4,0,0.7,0,1.1c2.5,1.3,4.6,2.6,6.2,3.8C115.7,106.6,113.6,104.8,110.7,103.1z"/>
		<path class="st0" d="M110.7,103.1c0-0.1,0-0.1,0-0.2c-0.2-0.1-0.5-0.3-0.7-0.4c0-0.4,0-0.8,0-1.2c-0.4-0.2-0.8-0.4-1.2-0.6
			c0,0.4,0,0.8-0.1,1.2c-0.4-0.2-0.9-0.4-1.3-0.6c0.1-0.4,0.1-0.8,0.1-1.2c-0.4-0.2-0.7-0.3-1.1-0.5c-0.1,0.4-0.1,0.8-0.2,1.2
			c-0.4-0.2-0.9-0.3-1.3-0.5c0.1-0.4,0.2-0.8,0.3-1.2c-0.4-0.1-0.8-0.3-1.1-0.4c-0.1,0.4-0.3,0.7-0.4,1.1c-0.5-0.1-0.9-0.3-1.4-0.4
			c0.2-0.4,0.3-0.7,0.5-1.1c-0.4-0.1-0.8-0.2-1.2-0.3c-0.2,0.3-0.4,0.7-0.6,1.1c-0.5-0.1-1-0.2-1.4-0.3c0.2-0.3,0.4-0.7,0.7-1
			c-0.4-0.1-0.9-0.1-1.3-0.2c-0.3,0.3-0.5,0.7-0.8,1c-0.3,0-0.5-0.1-0.8-0.1c0,0-0.1,0.1-0.1,0.1c-0.2,0.3-0.4,0.6-0.6,0.9
			c-0.1,0.1-0.1,0.2-0.2,0.3c0.3,0.1,0.6,0.1,0.9,0.2c-0.3,0.6-0.5,1.1-0.7,1.7c0.5,0.1,1,0.1,1.4,0.2c0.2-0.6,0.4-1.1,0.7-1.7
			c0.5,0.1,1,0.2,1.5,0.4c-0.2,0.5-0.5,1.1-0.6,1.6c0.5,0.1,0.9,0.2,1.4,0.3c0.2-0.5,0.4-1.1,0.6-1.6c0.5,0.1,1,0.3,1.4,0.4
			c-0.2,0.5-0.4,1-0.5,1.6c0.5,0.1,0.9,0.3,1.4,0.5c0.2-0.5,0.3-1.1,0.5-1.6c0.5,0.2,1,0.3,1.4,0.5c-0.1,0.5-0.3,1.1-0.5,1.6
			c0.4,0.2,0.9,0.4,1.3,0.6c0.2-0.6,0.3-1.1,0.4-1.7c0.5,0.2,0.9,0.4,1.4,0.6c-0.1,0.6-0.3,1.2-0.4,1.8c0.4,0.2,0.8,0.5,1.3,0.7
			c0.2-0.6,0.4-1.2,0.5-1.8c0.3,0.1,0.6,0.3,0.8,0.4c0-0.1,0-0.2,0-0.3C110.7,103.8,110.7,103.5,110.7,103.1z"/>
		<path class="st0" d="M77.4,73.4l0.4,0.8c0.3,0.5,0.6,1.1,1.1,1.8c2.1,3.4,5,7.1,8.8,11c0,0,4.8,4.7,6.8,6.5
			c0.8-0.2,1.6-0.4,2.5-0.5c-2.8-2.3-5.6-4.9-8.1-7.6C76,71.3,73.5,58.4,72.7,54.9C72.7,54.9,71.5,62.5,77.4,73.4z"/>
		<path class="st1" d="M89.4,93.6c0.1,0.1,1.3,1.2,1.4,1.2c0.7-0.3,1.5-0.6,2.3-0.9C81.7,84,77.4,73.3,77.4,73.3l0,0.1
			c-5.9-10.8-4.7-18.5-4.7-18.5s-0.1,0.2-0.1,0.2c-0.5,1.5-0.7,3.1-0.8,4.6c-0.1,2.6,0.1,5.2,0.7,7.7c0.6,2.7,1.5,5.3,2.7,7.8
			c1.2,2.6,2.6,5,4.2,7.3c2,2.8,4.2,5.5,6.7,8C87.2,91.6,88.2,92.6,89.4,93.6z"/>
		<path class="st1" d="M77.8,74.1l-0.4-0.8C77.5,73.6,77.7,73.9,77.8,74.1z"/>
		<path class="st1" d="M76.2,97.8C76.1,98,76,98.2,76,98.4c0,0.2,0.1,0.4,0.2,0.6c0,0,3.5,0.2,5.7,0.8c0.1-0.3,0.2-0.7,0.4-1.2
			c0.1-0.3,0.2-0.5,0.4-0.8c0,0,0,0,0,0C81.7,97.7,78.1,97.6,76.2,97.8z"/>
		<path class="st0" d="M76.2,97.8c1.9-0.2,5.5-0.2,6.5,0c0,0,0,0,0,0c0.5-0.8,1.3-1.2,1.9-1.4c-0.9-0.2-2.1-0.3-3-0.4
			c-0.5,0-1-0.1-1.4-0.1c-0.3,0-0.6,0-0.9,0c-0.6,0.1-1.3,0.3-1.8,0.7C76.7,97,76.4,97.4,76.2,97.8z"/>
		<path class="st0" d="M75.4,97.9c0,0,0.1-0.2,0.1-0.2c0.2-0.4,0.7-0.8,1.1-1c0,0,0,0,0,0c0.7-0.4,1.8-0.7,2.5-0.7c0,0-0.2,0-0.4,0
			c-0.9,0-1.7,0.1-2.6,0.2c-0.8,0.1-1.5,0.2-2.2,0.2c-0.2,0-0.4,0-0.7-0.1c0,0,0,0,0,0c0,0,0,0,0,0c-0.2,0-0.4-0.1-0.6-0.2
			C72.6,96.1,73,97.9,75.4,97.9z"/>
		<path class="st1" d="M87.1,92.6c-0.1,0-0.2,0.1-0.2,0.3c0,0.2,0.2,0.8-0.1,1.7c-0.3,0.9-1,1.5-1.6,1.8c-0.7,0.3-1.5,0.9-1.7,2
			c-0.2,1.1-0.8,2.5-0.6,3.4c0.1,0.4,0.4,0.8,1.2,0.8c-0.5,0.5-1.1,0.4-1.5,0.2c-0.7,1.2-1.7,1.7-3.5,1.4c-1.9-0.4-4.2-2.1-4.7-5.1
			c0-0.1,0.9-0.1,1-0.1c0,0,0,0,0,0c-0.1-0.1-0.2-0.4-0.2-0.6c0-0.1,0-0.3,0.1-0.5c-2.3,0-2.7-1.7-2.7-1.8c0,0-0.7,0.6-0.8,1.6
			c-0.1-0.4-0.4-0.8-0.8-0.8c-0.6-0.1-1.1,0.3-1.2,0.9c-0.1,0.6,0.3,1.1,0.9,1.2c0.6,0.1,1.1-0.3,1.2-0.9c0,0,0,0,0,0
			c0,0.1,0,0.2,0.1,0.4c0.1,0.4,0.2,0.6,0.4,0.8c0.3,0.5,0.7,0.5,0.7,0.5c0,0,0-0.1,0.1-0.1c0,0,0.2-0.2,0.3-0.2
			c-0.2-0.2-1.2-0.9-0.6-2.6c0,0,0,1.5,1.2,2.3c0.1,0.6,1.1,4.3,4.7,5.4c3.9,1.3,5.5-0.6,5.8-1.3c0.2-0.3,0.6-1.3,0.6-1.3
			c0.3-1,1.2-4.8,1.5-5.2c0.3-0.4,1.3-2.2,0.9-3.9C87.4,92.8,87.3,92.6,87.1,92.6z"/>
		<path class="st0" d="M122.4,109.1c0.3,0.5,0.7,1.3,0.7,2.3c0.8,0.4,3.7,2.6,5.1,3.9c0.1-0.4,0.1-1-0.2-1.7
			c-0.2-0.6-0.6-1.2-1.1-1.7c-0.1,0-0.1-0.1-0.2-0.1c-0.4-0.3-0.9-0.6-1.3-0.9c-0.6-0.4-1.3-0.8-1.9-1.2c-0.3-0.2-0.6-0.4-0.9-0.5
			C122.5,109.2,122.4,109.1,122.4,109.1z"/>
		<path class="st0" d="M128.6,114.1c0.2,0.4,0.3,0.9,0.2,1.4c0,0.1,0,0.2,0,0.3c0,0,0,0,0,0c0.1,0.1,0.2,0.1,0.2,0.2
			c0.1,0.1,0.3,0.2,0.4,0.2c0.2,0.1,0.4,0.2,0.7,0.3c0.2,0,0.4,0.1,0.5,0.1c0.5,0,1-0.2,1.4-0.5c0,0,0,0,0,0c-0.2,0-0.4-0.1-0.6-0.2
			c-0.2-0.1-0.4-0.2-0.6-0.4c-0.2-0.2-1-0.9-1.1-1c-0.2-0.2-0.5-0.5-0.7-0.7c-0.3-0.3-0.9-0.9-1.2-1.1c-0.1,0-0.8-0.7-0.8-0.7
			C127,112,128.3,113.4,128.6,114.1z"/>
		<path class="st1" d="M130.1,116.5c-0.2-0.1-0.5-0.1-0.7-0.3c-0.1-0.1-0.3-0.1-0.4-0.2c-0.1-0.1-0.2-0.1-0.2-0.2c0,0,0,0,0,0
			c0,0.2-0.1,0.3-0.2,0.4c-0.1,0.2-0.4,0.3-0.5,0.3c0,0,0,0,0,0c0.3,0.2,0.5,0.4,0.7,0.6c-2.2,2.1-5.2,2.1-6.9,1.3
			c-1.7-0.8-2.2-1.8-1.9-3.2c-0.4-0.1-0.9-0.4-1-1.1c0,0,0,0,0.1,0c0.4,0.3,1,0.4,1.4,0.1c0.3-0.3,0.6-0.9,0.9-1.5
			c0.2-0.5,0.4-1.1,0.7-1.6c0.1-0.2,0.2-0.4,0.2-0.7c0.1-0.7,0-1.4-0.3-1.9c-0.3-0.6-0.5-1.5-0.2-2.4c0.3-0.9,0.8-1.2,1-1.4
			c0.1-0.1,0.1-0.3,0.1-0.4c-0.1-0.2-0.4,0-0.4,0c-1.3,1.1-1.6,3.1-1.6,3.6c0,0.6-1.6,4.1-1.9,5.1c0,0-0.3,0.9-0.4,1.4
			c-0.1,0.8-0.1,3.2,3.8,4.6c3.6,1.3,6.5-1.1,7-1.5c1,0.1,1.7-0.4,2.1-0.8c0.2-0.2,0.3-0.3,0.3-0.3c-0.4,1.3-1.2,1.6-1.7,1.6
			c-0.2,0-0.3,0-0.4,0c0,0,0,0.1,0,0.1c0.1,0.2,0,0.3,0,0.3s0.1,0.1,0.3,0.1c0.3,0,0.7-0.1,1.3-0.5c0.1-0.1,0.2-0.2,0.3-0.2
			c-0.2,0.5-0.1,1.1,0.4,1.3c0.5,0.3,1.1,0.1,1.4-0.4c0.3-0.5,0.1-1.1-0.4-1.4c-0.4-0.2-0.8-0.1-1.1,0.1c0.3-0.5,0.3-1,0.3-1.3
			c0-0.1,0-0.3,0-0.3c0,0,0,0,0,0c-0.4,0.3-0.9,0.5-1.4,0.5C130.5,116.5,130.3,116.5,130.1,116.5z"/>
		<path class="st1" d="M122.8,112.2c-0.2,0.5-0.3,0.8-0.4,1.1c2,0.9,3.8,2,5,2.8c0.2-0.1,0.4-0.2,0.5-0.3c0.1-0.1,0.1-0.3,0.2-0.5
			c-1.4-1.3-4.3-3.5-5.1-3.9C123,111.4,123,111.9,122.8,112.2z"/>
		<path class="st1" d="M117.3,48.1c-10.9-1.9-13,6.3-13.1,8.3c0,1.5,0.1,2.4,0,3c-1.6,0.7-3.3,0.9-3.3,0.9c0.1-0.9,0.1-3,0.5-4.6
			c0.4-1.5,2.9-8.1,11.7-8.1c0.9,0,1.9,0.1,3,0.2C116.5,48,116.9,48.1,117.3,48.1C117.2,48.1,117.3,48.1,117.3,48.1z"/>
		<path d="M133.2,93.4c-8.2,2.2-16,2.8-21.2,3c-0.1-0.1-0.2-0.1-0.2-0.2c1.3-0.3,2.4-0.8,3.5-1.6c2.6-2.1,5.5-3.7,7.4-5.2
			c1.9-1.5,3.7-6.2,3.7-6.2c3.2-1.2,5.4-5.6,5.4-5.6s-0.5-1-0.6-2.2c0-1.2,1.8-3.2,3.7-6.8c1.9-3.6,2.3-8.4-0.8-13.8
			c-3.2-5.3-11.9-8.1-11.9-8.1c-0.1,0-8.7-3.1-14.4-0.8c-5.8,2.3-8.4,6.5-9,10.5s-0.4,6.7-1.1,7.6c-0.8,0.9-1.7,1.4-1.7,1.4
			s-0.9,4.8,0.9,7.8c0,0-1.4,4.8-0.8,7.2c0.6,2.4,2,5.4,2.8,8.6c0.3,1.3,1,2.4,1.9,3.4c-0.1,0-0.2,0-0.3,0
			c-4.1-3.3-10-8.5-15.2-15.2c-9.1-11.8-12.1-30.5-12.1-30.5c-4,11-5,14.8-1.7,25.3c3.3,10.4,13.3,20.4,13.3,20.4
			c-0.2,0.6,0.1,1.6,0.1,1.6s-1.5-0.4-5.8-0.5c-4.4,0-3.6,0.5-4.9,0.4c-1.3-0.1-1.7-0.6-1.7-0.6c-0.7,0.3-1.3,1.1-1.3,1.1
			c-0.6,0.1-3.8,0.4-3.5,3.5c0.3,3.1,3.6,2.9,3.6,2.9c0.6,0.7,1.4,1,1.4,1s1.9,5,7.4,5.3c4.8,0.2,6.3-2.7,6.6-3.5
			c0.1,0.3,0.3,0.6,0.4,0.9c1,2,2.5,4.2,4.5,6.2c2,2,4.6,3.8,7.6,4.8c4.7,1.6,9.4,1.1,13.1-0.1c1.4-0.4,2.7-1,3.9-1.7
			c-0.2,1-0.4,4,3.2,6.6c4.5,3.1,9.1,0.3,9.1,0.3s0.8,0.3,1.7,0.1c0,0,2.5,2.1,4.6-0.2c2.1-2.3-0.2-4.4-0.6-4.9c0,0,0-1-0.4-1.7
			c0,0-0.6,0.2-1.8-0.5c-1.1-0.8-0.2-0.6-3.7-3.3c-3.5-2.6-4.9-3.2-4.9-3.2s0.9-0.6,1.1-1.2c0,0,14-1.9,22.9-8.2
			c8.9-6.3,10.4-10,13.9-21.2C161.2,76.4,147.6,89.5,133.2,93.4z M98.2,70.1c0-0.3-0.1-0.7-0.1-1.1c0-1,0.1-2,0.1-2s1.3-0.9,2-2.1
			c0.7-1.2,1.2-3.7,1.2-3.7c2.5-0.3,4.9-3,5.1-3.2c-0.6,0.6-1.5,1.1-2.3,1.4c-1.6,0.7-3.3,0.9-3.3,0.9c0.1-0.9,0.1-3,0.5-4.6
			c0.4-1.5,2.9-8.1,11.7-8.1c0.9,0,1.9,0.1,3,0.2c0.4,0.1,0.7,0.1,1.1,0.2c0,0,0,0,0.1,0c2,0.4,3.6,0.9,4,1c0,0,0.1,0,0.1,0
			c0.2,0.1,0.5,0.2,0.8,0.3c0.1,0,0.2,0.1,0.3,0.1c0.1,0.1,0.3,0.1,0.4,0.2c0.2,0.1,0.4,0.2,0.7,0.3c0.2,0.1,0.5,0.2,0.7,0.3
			l0.4,0.2c11.4,5.5,8.9,14.2,8.3,15.8c-0.6,1.5-1.8,3-2.3,3.8c-0.6-0.7-1.4-1.7-2-2.8c-0.4-0.7-0.7-1.5-0.8-2.3
			c0,0,0.2,3.8,2.1,5.6c0,0-1,2.3-1.2,3.7c-0.2,1.4,0.3,2.9,0.3,2.9s-0.1,0.2-0.3,0.5c0,0,0,0,0,0c-0.5,0.8-1.1,1.7-1.8,2.2
			c-0.9,0.7-1.3,1.2-3.7,0.6c-0.9-0.2-1.9-0.4-2.9-0.5c-1.2-0.2-2.9-0.2-3.8,0.8c0,0,0,0,0,0c-0.1,0.1-0.2,0.3-0.3,0.5
			c0,0,0.7-0.5,1.9-0.4c0,0,0,0,0,0l0,0c0,0.1-0.3,0.8-0.4,1.5c0,0.4-0.2,1.4-0.2,1.5c-0.4,1.2-1.6,1.9-1.7,1.9
			c-0.1-0.1-0.3-0.4,0.2-2.1c0-0.1,0.3-0.2,0.3-0.2c0.1,0,0.2,0,0.3-0.1c0,0,0-0.1-0.1-0.2c0-0.1-0.2-0.1-0.3-0.2
			c-0.1,0-0.6-0.3-0.6-0.3c-0.2-0.1-0.4-0.2-0.4-0.2c0,0,0,0.1,0,0.2c0,0.1-0.1,0.3-0.1,0.3c0,0,0,0.1,0,0.1c0,0.1-0.1,0.2-0.1,0.3
			c-0.1,0.4-0.2,0.7-0.3,1.1c0,0,0,0,0,0c-0.1,0.4-0.5,0.2-0.5,0.2c0,0,0,0,0,0c-0.3-0.1-0.6-0.3-0.9-0.4c0,0-0.3-0.2-0.3-0.5
			c0,0,0,0,0,0c0,0,0,0,0,0c0,0,0-0.1,0-0.1c0.1-0.3,0.3-1.1,0.3-1.3c0-0.2,0.2-0.6,0.3-0.7c-0.1-0.1-0.2-0.2-0.3-0.3
			c-0.1-0.1-0.2-0.1-0.4-0.1c-0.1,0-0.2,0.2-0.2,0.3c0,0-0.1,0.4-0.3,0.9c-0.1,0.4-0.3,0.9-0.4,1.1c-0.1,0.2-0.2,0.3-0.4,0.3
			c-0.1,0-0.2,0-0.2,0c-0.3-0.1-0.6-0.2-0.9-0.3c0,0,0,0-0.1,0c-0.3-0.1-0.3-0.4-0.3-0.5c0.1-0.4,0.3-1,0.5-1.4
			c0-0.1,0.1-0.2,0.1-0.3c0,0,0,0,0,0c0,0,0.1-0.4,0.3-0.5c-0.1-0.1-0.4-0.2-0.6-0.3c-0.2-0.1-0.7-0.1-0.7-0.2
			c0.1,0.1,0.1,0.4,0,0.5c0,0.2-0.5,1.8-0.5,1.8c0,0.1-0.1,0.3-0.2,0.3c-0.1,0-0.5-0.1-0.5-0.1c0,0,0,0-0.1,0
			c-0.3-0.1-0.7-0.2-1-0.2c0,0-0.5-0.1-0.3-0.5c0,0,0.3-1.1,0.4-1.6c0,0,0,0,0,0c0,0,0.1-0.3,0.1-0.6c0-0.3-0.2-0.4-0.4-0.4
			c-0.2,0-0.3,0.3-0.4,0.4c0,0.2-0.1,0.5-0.1,0.5l0,0v0c0,0,0,0,0,0.1c-0.2,0.4-0.3,0.8-0.4,1.2c-0.1,0.4-0.6,0.3-0.6,0.3
			c-0.3-0.1-0.6-0.1-0.9-0.2c0,0,0,0,0,0c0,0-0.4-0.1-0.2-0.5c0,0,0,0,0,0c0.1-0.4,0.2-0.7,0.4-1.1c0-0.1,0.2-0.5,0.3-0.6
			c0.1-0.1,0.2-0.2,0.2-0.2c0-0.1-0.1-0.2-0.4-0.3c0,0-0.1,0-0.1,0c-0.1,0-0.1,0-0.2,0c-0.2,0-0.6,0-0.6,0.2c0,0,0,0,0,0
			c0,0.1,0.1,0.3,0,0.3c0,0.1,0,0.2-0.1,0.2c-0.6,1.7-0.9,1.8-1.1,1.8c-0.1,0-0.7-1.3-0.2-2.5c0,0,0,0,0,0c0.2-0.5,0.5-0.9,0.7-1.3
			c0.4-0.6,0.6-1.4,0.6-1.4l0,0c0,0,0,0,0,0c0.3,0.2,0.6,0.5,0.8,0.7c0,0,0,0,0,0c0.1,0.2,0.3,0.3,0.4,0.5c0,0.1,0,0.1,0,0.2
			c0.1-0.3,0.1-0.7,0-1c0,0,0,0,0,0c-0.5-1.2-1.6-2-2.7-2.6c-0.7-0.4-1.5-0.8-2.3-1.1c-2.3-1-2.3-1.7-2.6-2.7
			C98.2,70.4,98.2,70.3,98.2,70.1z M100.6,86.3c0-0.2-0.1-0.3-0.1-0.4c-0.3-0.9-1.5-4.3-1.7-5.1c-0.2-0.7-0.4-1.3-0.3-2.3
			c0-0.1,0-0.3,0-0.5c0.1-1.3,0.8-3.9,0.9-4.2c0,0,0,0,0,0s1,0.5,1.4,0.7c0,0,0,0,0,0c0,0.3-0.3,2.4-0.3,3.4c0,0.2,0,0.3,0,0.4
			c0,0,0.6,0.6,0.7,1.1c0.1,0.5,0,3.1,1,4.9v0c0,0,0-0.2,0.3-0.5c0.2-0.3,0.7-0.8,0.9-0.6c0.3,0.2,0.2,0.7,0.2,1.2
			c0,0.5-0.2,1.1-0.3,1.3c0,0,0.2,0.4,0.8,0.7c0,0,0-0.2,0-0.5c0.1-0.5,0.4-1,0.5-1.4c0.1-0.2,0.2-0.3,0.5-0.2c0,0,0.5,0.3,0.9,0.5
			c0,0,0.3,0.3,0.2,0.7c0,0,0,0,0,0c0,0,0,0,0,0.1c-0.2,0.4-0.3,0.8-0.5,1.2c0,0-0.1,0.4-0.3,0.4c0,0,0.4,0.2,0.5,0.3
			c0.2,0.1,0.6,0.2,0.7,0.3c0,0-0.2-0.3-0.1-0.6c0.1-0.5,0.2-1.2,0.4-1.8c0-0.1,0.2-0.4,0.5-0.3c0.3,0.1,0.7,0.3,1,0.4
			c0.3,0.1,0.3,0.4,0.3,0.5c-0.1,0.7-0.3,1.4-0.5,2.1c0,0.1-0.1,0.2-0.1,0.3c0,0,0.3,0.2,0.5,0.3c0.2,0.1,0.6,0.1,0.6,0.1
			s-0.1-0.3,0-0.5c0,0,0,0,0,0c0.1-0.4,0.3-0.8,0.4-1.3c0-0.1,0.1-0.3,0.2-0.5c0-0.1,0.2-0.3,0.5-0.3c0.4,0.1,0.8,0.2,1.2,0.3
			c0.3,0.1,0.1,0.5,0.1,0.5s-0.4,1-0.7,1.7c0,0-0.1,0.2-0.2,0.4c0,0,0.3,0.1,0.5,0.2c0.4,0.1,0.7,0.1,0.8,0.1c0,0-0.1-0.3,0-0.7
			c0,0,0,0,0-0.1c0.1-0.3,0.3-0.6,0.4-0.9c0-0.1,0.1-0.2,0.1-0.3c0-0.1,0.2-0.3,0.6-0.3h0c0.3,0.1,0.5,0.1,0.8,0.1l0,0
			c0,0,0.5,0.1,0.3,0.6c-0.2,0.5-0.5,1.1-0.8,1.6c0.3,0,0.6,0,0.9,0c0,0,0,0,0.1-0.4c0.1-0.3,0.5-1.1,0.5-1.2c0-0.1,0.2-0.5,0.4-0.5
			c0.2,0,0.9,0.5,0.7,1.6c1.9-0.8,3.4-3,3.8-3.3c0.3-0.3,1.1-0.4,1.2-0.4c0,0,0,0,0,0c0.5-0.5,1.8-2.9,2-3.2c0,0,0,0,0,0
			c0.4,0,1.5,0.3,1.5,0.3s-1.2,2.7-1.9,3.9c-0.7,1.2-1.3,1.6-1.9,2.1c-0.7,0.5-3.7,2.5-4.5,3c-0.8,0.6-2.9,2.4-4.7,2.8
			c-0.9,0.2-1.7,0.2-2.4,0.1c-0.8-0.1-1.5-0.3-2.2-0.5c0,0,0,0,0,0c0,0,0,0,0,0c-1.5-0.5-2.7-1.1-4-2.5
			C101.5,89.7,101,87.5,100.6,86.3z M79.4,82.6c-1.6-2.3-3.1-4.7-4.2-7.3c-1.1-2.5-2.1-5.1-2.7-7.8c-0.5-2.5-0.8-5.1-0.7-7.7
			c0.1-1.5,0.3-3.1,0.8-4.6l0.1-0.2c0.8,3.5,3.3,16.4,16.1,30.3c2.5,2.7,5.3,5.3,8.1,7.6c-0.9,0.1-1.7,0.3-2.5,0.5
			c-2-1.8-6.8-6.5-6.8-6.5c-3.8-3.8-6.7-7.5-8.8-11c-0.4-0.7-0.8-1.3-1.1-1.8c-0.1-0.3-0.3-0.5-0.4-0.8l0-0.1
			c0.1,0.3,4.5,10.8,15.6,20.5c-0.8,0.3-1.6,0.6-2.3,0.9c-0.1,0-1.2-1.1-1.4-1.2c-1.1-1-2.2-2-3.3-3.1
			C83.6,88.1,81.4,85.4,79.4,82.6z M80.1,95.9c0.5,0,1,0.1,1.4,0.1c1,0.1,2.1,0.2,3,0.4c-0.6,0.2-1.4,0.6-1.9,1.4
			c-0.1,0.2-0.3,0.5-0.4,0.8c-0.1,0.5-0.3,0.9-0.3,1.2c-2.2-0.6-5.7-0.8-5.7-0.8c-0.1-0.1-0.2-0.3-0.2-0.6c0-0.1,0.1-0.3,0.2-0.5
			c0.2-0.4,0.6-0.9,1.2-1.3c0.5-0.3,1.2-0.6,1.8-0.7C79.5,95.9,79.8,95.9,80.1,95.9z M86.5,96.7c-0.3,0.4-1.2,4.2-1.5,5.2
			c0,0-0.4,1-0.6,1.3c-0.4,0.7-1.9,2.6-5.8,1.3c-3.6-1.1-4.6-4.8-4.7-5.4c-1.2-0.8-1.2-2.3-1.2-2.3c-0.6,1.6,0.4,2.4,0.6,2.5
			c0,0-0.2,0.2-0.3,0.2c0,0,0,0.1-0.1,0.1c0,0-0.4-0.1-0.7-0.5c-0.1-0.2-0.3-0.4-0.4-0.8c0-0.1-0.1-0.3-0.1-0.4c0,0,0,0,0,0
			c-0.1,0.6-0.6,0.9-1.2,0.9c-0.6-0.1-0.9-0.6-0.9-1.2c0.1-0.6,0.6-0.9,1.2-0.9c0.4,0.1,0.8,0.4,0.8,0.8c0-1,0.8-1.6,0.8-1.6
			c0.2,0.1,0.4,0.1,0.6,0.2c0.2,0,0.4,0.1,0.7,0.1c0.7,0,1.4-0.1,2.2-0.2c0.9-0.1,1.7-0.2,2.6-0.2c0.1,0,0.4,0,0.4,0
			c-0.7,0-1.8,0.3-2.5,0.7c0,0,0,0,0,0c-0.4,0.2-0.8,0.6-1.1,1.1c0,0-0.1,0.2-0.1,0.2c-0.1,0.2-0.1,0.3-0.1,0.5
			c0,0.2,0.1,0.4,0.2,0.6h0c-0.1,0-1,0-1,0.1c0.5,3,2.8,4.8,4.7,5.1c1.8,0.4,2.8-0.1,3.5-1.4c0.4,0.2,0.9,0.2,1.5-0.2
			c-0.8,0-1.1-0.5-1.2-0.8c-0.2-0.9,0.4-2.3,0.6-3.4c0.2-1.1,1-1.7,1.7-2c0.7-0.3,1.3-0.9,1.6-1.8c0.3-0.9,0.1-1.5,0.1-1.7
			c0-0.2,0.1-0.3,0.2-0.3c0.2-0.1,0.3,0.2,0.3,0.2C87.8,94.5,86.8,96.2,86.5,96.7z M117.8,109.3c0,0,0,0.1-0.1,0.3
			c-0.8,2.4-9.7,6.8-18,4.1c-8.2-2.8-12.6-11.9-11.9-14.1c0-0.1,0.1-0.2,0.1-0.2c0,0,0,0,0,0c0.1-0.1,0.1-0.2,0.2-0.3
			c1.8-2.3,10.1-6.1,17.6-3.5c6.3,2.1,10.4,7.8,11.6,11.4C117.8,107.9,117.9,108.7,117.8,109.3z M127.8,112.6
			c0.3,0.2,0.9,0.8,1.2,1.1c0.2,0.2,0.5,0.5,0.7,0.7c0.2,0.2,0.9,0.9,1.1,1c0.2,0.1,0.4,0.3,0.6,0.4c0.2,0.1,0.4,0.2,0.6,0.2
			c0,0,0,0,0,0c0,0,0,0.2,0,0.3c0,0.3,0,0.8-0.3,1.3c0.3-0.2,0.7-0.3,1.1-0.1c0.5,0.3,0.7,0.9,0.4,1.4c-0.3,0.5-0.9,0.7-1.4,0.4
			c-0.5-0.3-0.6-0.8-0.4-1.3c-0.1,0.1-0.2,0.2-0.2,0.2c-0.6,0.4-1,0.5-1.3,0.5c-0.2,0-0.3-0.1-0.3-0.1s0-0.1,0-0.3c0,0,0-0.1,0-0.1
			c0.1,0,0.2,0,0.4,0c0.5-0.1,1.3-0.4,1.7-1.6c0,0-0.1,0.1-0.3,0.3c-0.4,0.3-1.1,0.9-2.1,0.8c-0.5,0.4-3.5,2.8-7,1.5
			c-3.9-1.4-3.9-3.8-3.8-4.6c0.1-0.5,0.3-1.4,0.4-1.4c0.3-1,1.9-4.5,1.9-5.1c0-0.6,0.3-2.6,1.6-3.6c0,0,0.2-0.2,0.4,0
			c0.1,0.1,0.1,0.2-0.1,0.4c-0.1,0.1-0.7,0.5-1,1.4c-0.3,0.9-0.1,1.7,0.2,2.4c0.3,0.6,0.5,1.3,0.3,1.9c0,0.2-0.1,0.5-0.2,0.7
			c-0.2,0.5-0.4,1.1-0.7,1.6c-0.2,0.6-0.5,1.1-0.9,1.5c-0.4,0.4-1,0.3-1.4-0.1c0,0,0,0-0.1,0c0.2,0.7,0.6,1,1,1.1
			c-0.2,1.4,0.3,2.4,1.9,3.2c1.7,0.8,4.6,0.8,6.9-1.3c-0.2-0.2-0.5-0.4-0.7-0.6c0,0,0,0,0,0c0.2,0,0.4-0.1,0.5-0.3
			c0.1-0.1,0.1-0.3,0.2-0.4c0,0,0,0,0,0c0,0,0,0,0,0c0-0.1,0-0.2,0-0.3c0-0.4-0.1-1-0.2-1.4c-0.3-0.7-1.4-1.9-1.6-2.1
			C127.1,112.1,127.8,112.6,127.8,112.6z M123.5,109.7c0.7,0.4,1.3,0.8,1.9,1.2c0.5,0.3,0.9,0.6,1.3,0.9c0.1,0,0.1,0.1,0.2,0.1
			c0.4,0.5,0.9,1.1,1.1,1.7c0.2,0.7,0.3,1.3,0.2,1.7c0,0.2-0.1,0.4-0.2,0.5c-0.1,0.2-0.3,0.3-0.5,0.3c-1.2-0.8-3.1-1.9-5-2.8
			c0.1-0.3,0.3-0.7,0.4-1.1c0.1-0.3,0.2-0.8,0.2-0.8c0.1-1-0.3-1.8-0.7-2.3c0.1,0,0.1,0.1,0.2,0.1
			C122.9,109.4,123.2,109.5,123.5,109.7z M156.8,83.3c-0.9,2.5-2.5,4.9-4.3,6.9c-1.3,1.4-2.7,2.8-4.2,4c-2.3,1.9-4.9,3.4-7.6,4.6
			c-2.7,1.3-5.5,2.3-8.3,3c-4.4,1.2-9.1,1.9-13.8,2.1c-0.4-0.7-0.8-1.4-1.3-2.1C132.2,100.9,142,95,142,95l0.1-0.1
			c-0.5,0.2-1.1,0.5-1.6,0.7c-2.4,0.9-7.5,2.6-14.2,3.8c-2.7,0.5-5.4,0.8-8.2,1.1c-0.2,0-1.8,0.1-1.8,0.1c-0.5-0.6-1-1.3-1.6-1.9
			c3.6-0.2,7.4-0.5,11-1.2c15.1-2.7,24.3-9,28.8-12.5c0.4-0.3,0.8-0.6,1.1-0.9c0.8-0.6,1.2-1,1.2-1l0,0L156.8,83.3z"/>
		<path class="st1" d="M133.1,66.4c-0.6,1.5-1.8,3-2.3,3.8c-0.6-0.7-1.4-1.7-2-2.8c0.3-0.5,1-1.2,1.7-2.2c0.5-0.7,1.5-2.7,1.5-5.1
			c0-2.7-1.2-6-5.7-8.7c0,0,0,0,0,0c-0.1,0-0.1-0.1-0.2-0.1c-0.6-0.3-1.1-0.6-1.7-0.9l0.4,0.2C136.3,56.1,133.7,64.8,133.1,66.4z"/>
		<path class="st0" d="M130.5,65.3c0.5-0.7,1.5-2.7,1.5-5.1c0-2.7-1.2-6-5.7-8.7c0,0,0,0,0,0c-0.1,0-0.1-0.1-0.2-0.1
			c-0.6-0.3-1.1-0.6-1.7-0.9c-0.2-0.1-0.5-0.2-0.7-0.3c-0.2-0.1-0.4-0.2-0.7-0.3c-0.2-0.1-0.3-0.1-0.4-0.2c-0.1,0-0.2-0.1-0.3-0.1
			c-0.3-0.1-0.6-0.2-0.8-0.3c0,0-0.1,0-0.1,0c-0.4-0.1-2-0.6-4-1c-10.9-1.9-13,6.3-13.1,8.3c0,1.5,0.1,2.4,0,3
			c0.9-0.4,1.7-0.8,2.3-1.4c-0.1,0.2-2.5,2.9-5.1,3.2c0,0-0.6,2.5-1.2,3.7c-0.7,1.2-2,2.1-2,2.1c-0.1,1.8,0.8,4.3,1.9,4.8
			c1.1,0.5,3.9,1.5,5,2.7c1.1,1.2,1.1,2.6,0.9,3.5c-0.1,0.4-0.2,0.8-0.4,1.2c0,0,0.1,0,0.1,0c0.2,0.1,0.4,0.2,0.4,0.3
			c0,0-0.1,0.1-0.2,0.2c-0.1,0.1-0.2,0.5-0.3,0.6c-0.2,0.4-0.3,0.7-0.4,1.1c0,0,0,0,0,0c-0.1,0.4,0.2,0.5,0.2,0.5c0,0,0,0,0,0
			c0.3,0.1,0.6,0.1,0.9,0.2c0,0,0.4,0.1,0.6-0.3c0.1-0.4,0.3-0.8,0.4-1.2c0,0,0,0,0-0.1v0l0,0c0,0,0.1-0.3,0.1-0.5
			c0-0.2,0.2-0.4,0.4-0.4c0.2,0,0.4,0.1,0.4,0.4c0,0.3-0.1,0.5-0.1,0.6c0,0,0,0,0,0c-0.1,0.5-0.4,1.6-0.4,1.6
			c-0.1,0.4,0.3,0.5,0.3,0.5c0.3,0.1,0.7,0.1,1,0.2c0,0,0,0,0.1,0c0,0,0.3,0.1,0.5,0.1c0.1,0,0.2-0.2,0.2-0.3c0-0.1,0.5-1.7,0.5-1.8
			c0-0.1,0-0.4,0-0.5c0,0,0.4,0.1,0.7,0.2c0.2,0.1,0.5,0.2,0.6,0.3c-0.2,0.1-0.3,0.4-0.3,0.5c0,0,0,0,0,0c0,0.1-0.1,0.2-0.1,0.3
			c-0.1,0.4-0.3,1-0.5,1.4c0,0.1,0,0.4,0.3,0.5c0,0,0,0,0.1,0c0.3,0.1,0.7,0.2,0.9,0.3c0,0,0.1,0,0.2,0c0.1,0,0.3,0,0.4-0.3
			c0.1-0.2,0.2-0.7,0.4-1.1c0.1-0.4,0.3-0.8,0.3-0.9c0-0.1,0.1-0.2,0.2-0.3c0.2,0,0.3,0,0.4,0.1c0.1,0.1,0.3,0.2,0.3,0.3
			c-0.1,0.1-0.2,0.5-0.3,0.7c0,0.2-0.2,0.9-0.3,1.3c0,0,0,0.1,0,0.1c0,0,0,0,0,0c0,0,0,0,0,0c-0.1,0.4,0.3,0.5,0.3,0.5
			c0.3,0.1,0.6,0.3,0.9,0.4c0,0,0,0,0,0c0,0,0.4,0.1,0.5-0.2c0,0,0,0,0,0c0.1-0.4,0.2-0.7,0.3-1.1c0-0.1,0.1-0.2,0.1-0.3
			c0,0,0,0,0-0.1c0,0,0.1-0.2,0.1-0.3c0-0.1,0-0.1,0-0.2c0,0,0.2,0.1,0.4,0.2c0.1-0.8,0.4-1.4,0.4-1.4c0.1-0.2,0.2-0.3,0.3-0.5
			c0,0,0,0,0,0c0.4-0.8,1.2-1.5,2.6-1.8c1.6-0.3,4.4,0.6,5.6,0.8c1,0.2,2.9-0.9,4-2.2c0.2-0.3,0.3-0.5,0.3-0.5s-0.5-1.5-0.3-2.9
			c0.2-1.4,1.2-3.7,1.2-3.7c-1.9-1.8-2.1-5.6-2.1-5.6c0.1,0.8,0.4,1.5,0.8,2.3C129.1,67,129.8,66.3,130.5,65.3z M113.5,64.2
			c1.6,1.4,2.2,1.5,2.4,1.5c0.1,0.1,0.8,0.4,2.8,0.2c2.4-0.1,6.6-0.5,7.8,1c0,0-3-0.3-5,0c-2,0.4-4.9,0.7-6.1,0.3
			c-1.3-0.4-3.4-2.3-4.7-3.9c-1.4-1.5-4-3-4-3.1C108.6,59.8,111.7,62.7,113.5,64.2z M115.3,77.3l-0.2,0.6c-0.3,0.8-1.3,1.2-2.2,0.9
			c0,0,0,0,0,0s0.6-0.2,0.8-0.8c0,0,0,0,0,0c-0.2,0-0.4,0-0.6,0c-0.6-0.2-0.9-0.8-0.7-1.3c0-0.1,0-0.2-0.1-0.2c-0.1,0-0.2,0-0.2,0.1
			c-0.2,0.5-0.8,0.8-1.4,0.6c-0.2-0.1-0.3-0.2-0.5-0.3c0,0,0,0,0,0c-0.2,0.6,0.2,1.1,0.2,1.1c-0.9-0.3-1.5-1.2-1.2-2l0.2-0.6
			c0.1-0.5,0.5-0.7,0.8-0.9c0.3-0.2,0.5-0.3,0.7-0.6l0,0v0c0.4-0.4,0.6-0.7,0.8-1.2c0.3-0.8,1.2-1.2,2.1-0.9c0,0,0.1,0,0.1,0
			c0,0,0.1,0,0.1,0c0.9,0.3,1.3,1.2,1.1,2c-0.2,0.5-0.1,0.9-0.1,1.4l0,0v0c0,0.4,0.1,0.7,0.2,0.9C115.3,76.4,115.4,76.8,115.3,77.3z
			 M128.1,70.6L128.1,70.6c0,0-0.5,3.2-1.3,4.5c-0.8,1.3-1.5,2.4-3.5,2.3c0,0,1.1-0.3,0.8-1.2c0-0.1,0-0.1-0.1-0.2c0,0,0,0,0,0
			c0,0-0.3,0.1-0.5,0.1c-1.2,0.1-3.7-0.2-4.9-1.1c0,0,0,0,0,0c0,0-0.3,0.4,0.1,1.5c-0.1,0-1.6-0.6-2.1-1.8c-0.6-1.2,0-4.6-2-5.3
			c-2-0.7-3.6,2.4-4.8,3c-1.2,0.7-2.8,0.1-2.8,0.1c1-0.7,1-1.1,1-1.1c0,0,0,0,0,0c-1.5-0.1-3.7-1.3-4.5-2.1
			c-0.1-0.1-0.3-0.4-0.3-0.4c0,0-0.1,0-0.1,0.1c0,0-0.1,0-0.1,0.1c-0.8,0.5-0.2,1.4-0.1,1.4c-1.6-1.1-1.5-2.5-1.4-4
			c0.1-1.5,1.7-4.4,1.7-4.4l0,0c0,0,0,0,0,0c0.1,0,1.5,0.6,2.7,1.8c0.1,0.1,0.2,0.2,0.4,0.4c1.3,1.4,2.6,2.8,3.8,3.2
			c0.4,0.1,0.8,0.2,1.2,0.1c0,0,0,0,0,0c0.1,0,0.2,0,0.3,0v0c0.6-0.1,1.1-0.2,1.1-0.2c0.4,0.9,3.7,2,4.6,1.5c0,0,0,0,0,0
			c0.1,0.1,0.3,0.5,0.7,0.9v0c0.1,0.1,0.1,0.1,0.2,0.2c0,0,0,0,0,0c0.3,0.2,0.7,0.5,1.1,0.6c1.2,0.4,3,0.1,5-0.2
			c0.2,0,0.3,0,0.5-0.1C126.6,70.3,128.1,70.6,128.1,70.6z"/>
	</g>
</g>
</svg>
